<svg width="50" height="50" viewBox="0 0 50 50" fill="none" xmlns="http://www.w3.org/2000/svg">
<circle opacity="0.3" cx="25" cy="25" r="24.5" stroke="#282B22"/>
<path d="M25.26 26.14C25.26 27.3133 25.0333 28.36 24.58 29.28C24.14 30.1867 23.5333 30.9 22.76 31.42C21.9867 31.94 21.1133 32.2 20.14 32.2C19.1533 32.2 18.2733 31.94 17.5 31.42C16.74 30.9 16.1333 30.1867 15.68 29.28C15.24 28.36 15.02 27.3133 15.02 26.14C15.02 24.9667 15.24 23.9267 15.68 23.02C16.1333 22.1 16.74 21.38 17.5 20.86C18.2733 20.3267 19.1533 20.06 20.14 20.06C21.1133 20.06 21.9867 20.3267 22.76 20.86C23.5333 21.38 24.14 22.1 24.58 23.02C25.0333 23.9267 25.26 24.9667 25.26 26.14ZM23.02 26.14C23.02 25.34 22.8933 24.64 22.64 24.04C22.4 23.4267 22.06 22.9533 21.62 22.62C21.1933 22.2733 20.7 22.1 20.14 22.1C19.5667 22.1 19.06 22.2733 18.62 22.62C18.18 22.9533 17.8333 23.4267 17.58 24.04C17.34 24.64 17.22 25.34 17.22 26.14C17.22 27.34 17.4867 28.3133 18.02 29.06C18.5667 29.7933 19.2733 30.16 20.14 30.16C20.7 30.16 21.1933 29.9933 21.62 29.66C22.06 29.3267 22.4 28.86 22.64 28.26C22.8933 27.6467 23.02 26.94 23.02 26.14ZM27.0852 32C27.0852 31.2533 27.1718 30.58 27.3452 29.98C27.5318 29.3667 27.8518 28.8067 28.3052 28.3C28.7718 27.78 29.4385 27.28 30.3052 26.8C30.9185 26.4533 31.4852 26.1467 32.0052 25.88C32.5385 25.6 32.9585 25.3133 33.2652 25.02C33.5852 24.7267 33.7452 24.38 33.7452 23.98C33.7452 23.5533 33.5585 23.1733 33.1852 22.84C32.8252 22.4933 32.3052 22.32 31.6252 22.32C30.9052 22.32 30.2985 22.4933 29.8052 22.84C29.3118 23.1733 28.9185 23.5133 28.6252 23.86L27.2452 22.28C27.4318 22.08 27.7452 21.8333 28.1852 21.54C28.6252 21.2333 29.1652 20.9667 29.8052 20.74C30.4585 20.5 31.1918 20.38 32.0052 20.38C33.2852 20.38 34.2918 20.6933 35.0252 21.32C35.7585 21.9467 36.1252 22.7333 36.1252 23.68C36.1252 24.3333 35.9585 24.8933 35.6252 25.36C35.2918 25.8133 34.8918 26.1933 34.4252 26.5C33.9718 26.8067 33.5518 27.06 33.1652 27.26C32.4718 27.6067 31.8985 27.9133 31.4452 28.18C31.0052 28.4467 30.6518 28.72 30.3852 29C30.1185 29.28 29.9052 29.62 29.7452 30.02H36.3452V32H27.0852Z" fill="#3D4A39"/>
</svg>
