<svg width="50" height="50" viewBox="0 0 50 50" fill="none" xmlns="http://www.w3.org/2000/svg">
<circle opacity="0.3" cx="25" cy="25" r="24.5" stroke="#282B22"/>
<path d="M25.26 26.14C25.26 27.3133 25.0333 28.36 24.58 29.28C24.14 30.1867 23.5333 30.9 22.76 31.42C21.9867 31.94 21.1133 32.2 20.14 32.2C19.1533 32.2 18.2733 31.94 17.5 31.42C16.74 30.9 16.1333 30.1867 15.68 29.28C15.24 28.36 15.02 27.3133 15.02 26.14C15.02 24.9667 15.24 23.9267 15.68 23.02C16.1333 22.1 16.74 21.38 17.5 20.86C18.2733 20.3267 19.1533 20.06 20.14 20.06C21.1133 20.06 21.9867 20.3267 22.76 20.86C23.5333 21.38 24.14 22.1 24.58 23.02C25.0333 23.9267 25.26 24.9667 25.26 26.14ZM23.02 26.14C23.02 25.34 22.8933 24.64 22.64 24.04C22.4 23.4267 22.06 22.9533 21.62 22.62C21.1933 22.2733 20.7 22.1 20.14 22.1C19.5667 22.1 19.06 22.2733 18.62 22.62C18.18 22.9533 17.8333 23.4267 17.58 24.04C17.34 24.64 17.22 25.34 17.22 26.14C17.22 27.34 17.4867 28.3133 18.02 29.06C18.5667 29.7933 19.2733 30.16 20.14 30.16C20.7 30.16 21.1933 29.9933 21.62 29.66C22.06 29.3267 22.4 28.86 22.64 28.26C22.8933 27.6467 23.02 26.94 23.02 26.14ZM33.6652 27.28C34.5052 27.4267 35.1785 27.8267 35.6852 28.48C36.1918 29.12 36.4452 29.9067 36.4452 30.84C36.4452 31.6667 36.2385 32.3867 35.8252 33C35.4118 33.6133 34.8318 34.0867 34.0852 34.42C33.3518 34.7667 32.4785 34.94 31.4652 34.94C30.4518 34.94 29.5585 34.76 28.7852 34.4C28.0118 34.0533 27.3918 33.5467 26.9252 32.88L28.2652 31.36C28.5852 31.8533 28.9985 32.24 29.5052 32.52C30.0118 32.8 30.6518 32.94 31.4252 32.94C32.2918 32.94 32.9652 32.7533 33.4452 32.38C33.9252 32.0067 34.1652 31.4467 34.1652 30.7C34.1652 29.9267 33.8985 29.32 33.3652 28.88C32.8318 28.44 32.0452 28.22 31.0052 28.22H30.4652V26.5H31.0652C31.9585 26.5 32.6452 26.2933 33.1252 25.88C33.6052 25.4533 33.8452 24.92 33.8452 24.28C33.8452 23.6533 33.6252 23.1867 33.1852 22.88C32.7585 22.5733 32.2118 22.42 31.5452 22.42C30.8652 22.42 30.2652 22.5667 29.7452 22.86C29.2252 23.1533 28.8118 23.5733 28.5052 24.12L27.1252 22.62C27.5118 21.98 28.1252 21.4667 28.9652 21.08C29.8185 20.68 30.7518 20.48 31.7652 20.48C32.6452 20.48 33.4118 20.6267 34.0652 20.92C34.7318 21.2133 35.2518 21.6267 35.6252 22.16C35.9985 22.6933 36.1852 23.32 36.1852 24.04C36.1852 24.8267 35.9585 25.5333 35.5052 26.16C35.0518 26.7733 34.4385 27.1467 33.6652 27.28Z" fill="#3D4A39"/>
</svg>
