<svg width="130" height="57" viewBox="0 0 130 57" fill="none" xmlns="http://www.w3.org/2000/svg">
<g clip-path="url(#clip0_238_127)">
<path d="M113.679 2.09277C118.056 2.09277 121.808 3.66243 124.941 6.7893C128.074 9.92287 129.637 13.681 129.637 18.0782C129.637 22.482 128.074 26.2345 124.941 29.3403C124.516 29.7612 124.08 30.1533 123.632 30.5168C116.259 26.6936 108.471 24.8657 108.311 18.0839C109.667 20.8062 110.449 22.306 113.369 23.7714C113.601 23.4213 113.849 23.0005 114.098 22.6705C115.351 21.0004 115.614 21.6441 118.425 21.0252C120.787 20.5058 121.324 19.4546 121.492 16.8089C119.345 14.9676 119.964 16.2388 118.64 13.2401C117.827 11.3988 117.142 11.2477 114.984 10.7857L115.204 7.14513C110.359 8.29296 106.977 12.3811 105.278 16.9074C103.159 22.5585 103.807 26.3732 104.87 31.3691C104.009 30.7894 103.188 30.1141 102.409 29.3412C99.2954 26.2211 97.7324 22.4696 97.7324 18.0791C97.7324 13.6954 99.2954 9.93626 102.409 6.79026C105.542 3.66338 109.294 2.09373 113.678 2.09373L113.679 2.09277Z" fill="#3D4A39"/>
<path d="M117.19 9.86357L117.467 9.19592C118.636 9.68279 119.705 10.4107 120.673 11.3787L120.672 11.3797C121.651 12.3553 122.385 13.4285 122.873 14.5993C123.363 15.772 123.607 17.0394 123.607 18.3996C123.607 19.7722 123.362 21.0453 122.872 22.218C122.382 23.3879 121.649 24.4544 120.671 25.4157C119.697 26.3789 118.626 27.1001 117.461 27.5822C116.292 28.0662 115.03 28.3073 113.678 28.3073C112.306 28.3073 111.033 28.0672 109.859 27.5841C108.686 27.102 107.62 26.3789 106.658 25.4138L106.657 25.4147C105.689 24.4467 104.961 23.3764 104.474 22.2037C103.987 21.0319 103.743 19.7636 103.743 18.3996C103.743 17.0461 103.987 15.7835 104.473 14.6108C104.959 13.44 105.687 12.363 106.655 11.3816C107.611 10.4117 108.675 9.68279 109.847 9.19592L110.124 9.86357C109.041 10.3131 108.056 10.9884 107.169 11.8876C106.267 12.802 105.591 13.8025 105.14 14.8882C104.692 15.97 104.467 17.1408 104.467 18.3996C104.467 19.6698 104.692 20.8454 105.141 21.9263C105.591 23.0081 106.267 24.001 107.168 24.903V24.9039C108.062 25.8012 109.051 26.4717 110.133 26.9174C111.214 27.3622 112.396 27.5841 113.677 27.5841C114.937 27.5841 116.107 27.3622 117.186 26.9155C118.263 26.4698 119.256 25.7992 120.162 24.903L120.163 24.902C121.071 24.0096 121.75 23.0225 122.203 21.9425C122.655 20.8598 122.881 19.6794 122.881 18.4005C122.881 17.1341 122.656 15.9595 122.204 14.8767C121.751 13.793 121.071 12.7972 120.161 11.8904H120.16C119.258 10.9884 118.267 10.3122 117.189 9.86357H117.19ZM113.678 2.09277C115.914 2.09277 117.992 2.49451 119.915 3.29704C121.836 4.0986 123.596 5.29904 125.196 6.89548H125.197C126.796 8.49478 127.997 10.2577 128.798 12.1831C129.6 14.1096 130 16.1948 130 18.4398C130 20.6885 129.599 22.7738 128.798 24.6964C127.998 26.6171 126.797 28.3713 125.196 29.9582C123.602 31.5384 121.845 32.7235 119.924 33.5146C118.001 34.3056 115.92 34.7016 113.678 34.7016V34.7007C111.428 34.694 109.341 34.2951 107.418 33.504C105.496 32.713 103.741 31.5317 102.155 29.9592L102.154 29.9582C100.563 28.3646 99.3688 26.6075 98.5711 24.6878C97.7724 22.7661 97.3716 20.6838 97.3716 18.4417C97.3716 16.2024 97.7724 14.1211 98.5711 12.1946C99.3688 10.271 100.563 8.50626 102.154 6.89835L102.155 6.89739C103.755 5.30095 105.515 4.10052 107.437 3.29895C109.36 2.49643 111.44 2.09469 113.679 2.09469L113.678 2.09277ZM119.638 3.96373C117.806 3.19947 115.82 2.81591 113.678 2.81591C111.534 2.81591 109.546 3.19851 107.714 3.96373C105.88 4.72895 104.197 5.87678 102.665 7.40626C101.143 8.94531 99.9992 10.6326 99.2378 12.4701C98.4764 14.3057 98.0957 16.2952 98.0957 18.4398C98.0957 20.5881 98.4773 22.5777 99.2378 24.4085C99.9992 26.2412 101.142 27.9208 102.665 29.4465C104.184 30.952 105.86 32.0817 107.692 32.8354C109.528 33.5911 111.524 33.9718 113.678 33.9775V33.9756C115.828 33.9756 117.818 33.5987 119.649 32.846C121.482 32.0922 123.16 30.9587 124.686 29.4455C126.218 27.9266 127.366 26.2507 128.13 24.418C128.894 22.5863 129.275 20.5938 129.275 18.4388C129.275 16.2876 128.894 14.2942 128.13 12.4586C127.367 10.623 126.218 8.93861 124.685 7.4053L124.686 7.40435C123.154 5.87487 121.471 4.72704 119.638 3.96182V3.96373Z" fill="#3D4A39"/>
<path d="M110.092 9.78551L110.125 9.86395C110.043 9.89838 109.961 9.93377 109.88 9.97012C107.81 11.8114 106.262 14.286 105.278 16.9068C104.963 17.7486 104.708 18.5492 104.508 19.3192C104.592 20.2422 104.803 21.1117 105.142 21.9267C105.591 23.0085 106.267 24.0014 107.168 24.9034V24.9043C108.062 25.8015 109.051 26.4721 110.133 26.9178C111.214 27.3626 112.396 27.5845 113.678 27.5845C114.687 27.5845 115.637 27.442 116.531 27.156C111.972 24.9636 108.418 22.6431 108.31 18.0834C109.666 20.8056 110.448 22.3054 113.368 23.7708C113.6 23.4207 113.848 22.9999 114.096 22.6708C115.35 21.0007 115.613 21.6435 118.424 21.0256C120.786 20.5062 121.323 19.455 121.491 16.8093C119.344 14.968 119.963 16.2392 118.639 13.2405C117.826 11.3992 117.142 11.248 114.983 10.786L115.203 7.14551C113.259 7.60655 111.55 8.54108 110.092 9.78647L110.092 9.78551Z" fill="#DDD5C1"/>
<path d="M117.447 27.5892C116.281 28.0694 115.024 28.3086 113.678 28.3086C112.306 28.3086 111.033 28.0675 109.859 27.5854C108.686 27.1033 107.62 26.3802 106.658 25.4151L106.657 25.416C105.689 24.448 104.961 23.3777 104.474 22.205C104.334 21.8692 104.215 21.5258 104.115 21.1748C103.547 24.6939 104.087 27.6849 104.851 31.2814C105.752 31.9099 106.699 32.4293 107.692 32.8377C109.527 33.5933 111.523 33.974 113.677 33.9798V33.9788C115.827 33.9788 117.817 33.602 119.648 32.8492C121.038 32.2772 122.34 31.4871 123.554 30.478C121.489 29.4124 119.395 28.4999 117.446 27.5902L117.447 27.5892Z" fill="#AE7B3C"/>
<path d="M80.2902 2.15206C84.6539 2.15206 88.413 3.70163 91.5724 6.80841L87.0691 11.3117C85.1599 9.42929 82.9111 8.48424 80.3304 8.48424C77.6894 8.48424 75.4407 9.42929 73.585 11.3117C71.716 13.1808 70.7776 15.4363 70.7776 18.0772C70.7776 20.7115 71.716 22.967 73.585 24.836C75.4273 26.7051 77.676 27.6434 80.3304 27.6434C82.2798 27.6434 84.0494 27.0982 85.6458 26.0068C87.116 25.0091 88.2141 23.7188 88.9458 22.1482H79.9784V16.1278H96.1168C96.5291 21.4891 95.0063 25.8939 91.5332 29.3393C88.3996 32.4461 84.6481 33.9957 80.2711 33.9957C75.8539 33.9957 72.1024 32.4461 69.0224 29.3393C65.9089 26.2459 64.3459 22.4944 64.3459 18.0772C64.3459 13.6935 65.9089 9.93433 69.0224 6.78833C72.1158 3.66145 75.8673 2.0918 80.2711 2.0918L80.2912 2.15206H80.2902Z" fill="#3D4A39"/>
<path d="M80.5504 1.79262C82.6796 1.82227 84.6701 2.21828 86.52 2.98254C88.4446 3.77645 90.2122 4.96637 91.8259 6.55228L92.086 6.80767L87.072 11.8218L86.8166 11.5702C85.8954 10.6625 84.893 9.98046 83.8112 9.52611C82.7332 9.07368 81.5729 8.84698 80.3304 8.84698C79.0582 8.84698 77.8826 9.07368 76.8037 9.52611C75.7228 9.9795 74.7357 10.6596 73.8423 11.5654L73.8413 11.5683C72.9393 12.4703 72.2631 13.4632 71.8135 14.5459C71.3649 15.6278 71.1401 16.8053 71.1401 18.0774C71.1401 19.3477 71.3649 20.5233 71.8145 21.6041C72.264 22.686 72.9403 23.6788 73.8413 24.5799L73.8423 24.5827C74.729 25.4828 75.7132 26.1581 76.7932 26.6077C77.8712 27.0563 79.0506 27.2811 80.3304 27.2811C81.2706 27.2811 82.165 27.1501 83.0144 26.8889C83.8647 26.6268 84.674 26.2337 85.442 25.7086H85.443C86.148 25.2303 86.7649 24.6803 87.2939 24.0624C87.7004 23.587 88.0553 23.0695 88.3585 22.5109H79.6159V15.7665H96.4516L96.4774 16.1013C96.6869 18.8293 96.4028 21.3191 95.6223 23.5698C94.8399 25.8253 93.5629 27.834 91.7876 29.5959C90.1874 31.1828 88.4264 32.3727 86.5057 33.1666C84.5831 33.9615 82.5055 34.3584 80.2711 34.3584C78.0156 34.3584 75.9265 33.9615 74.0058 33.1656C72.0861 32.3708 70.3395 31.1808 68.767 29.5949C67.1763 28.0138 65.9816 26.2643 65.1829 24.3436C64.3842 22.422 63.9834 20.3329 63.9834 18.0774C63.9834 15.8382 64.3842 13.7568 65.1829 11.8304C65.9806 9.90681 67.1753 8.14202 68.766 6.53411C70.3471 4.93576 72.0985 3.73436 74.0192 2.9328C75.939 2.13123 78.0232 1.72949 80.2711 1.72949H80.5303L80.5504 1.79167V1.79262ZM86.2465 3.64923C84.4119 2.89262 82.4271 2.51384 80.2912 2.51384H80.0319L80.0128 2.45549C77.9582 2.48515 76.0528 2.8668 74.2966 3.60045C72.4649 4.36567 70.7919 5.5135 69.2778 7.04298C67.755 8.58202 66.6119 10.2693 65.8496 12.1078C65.0882 13.9433 64.7075 15.9329 64.7075 18.0774C64.7075 20.2392 65.0891 22.2354 65.8496 24.0662C66.611 25.8989 67.754 27.5709 69.2758 29.0841L69.2768 29.0851C70.7824 30.6041 72.4505 31.7414 74.2785 32.498C76.1083 33.2555 78.1065 33.6343 80.2701 33.6343C82.4127 33.6343 84.3994 33.2565 86.2312 32.4989C88.0629 31.7414 89.7454 30.6031 91.2787 29.0832C92.9756 27.3987 94.1961 25.4828 94.9413 23.3345C95.6558 21.2732 95.9351 18.9909 95.7792 16.4896H80.3399V21.7859H89.513L89.2729 22.3005C88.8932 23.1154 88.4168 23.8596 87.842 24.5311C87.2738 25.1959 86.609 25.787 85.8486 26.3045V26.3054C85.0212 26.8708 84.1469 27.2954 83.2258 27.5795C82.3037 27.8636 81.3386 28.0052 80.3304 28.0052C78.9568 28.0052 77.6856 27.7613 76.5167 27.2754C75.3479 26.7894 74.2861 26.0606 73.3296 25.0916L73.3286 25.0926C72.3606 24.1246 71.6327 23.0542 71.1458 21.8815C70.659 20.7098 70.4151 19.4414 70.4151 18.0774C70.4151 16.7106 70.659 15.4413 71.1458 14.2686C71.6327 13.0949 72.3606 12.0246 73.3286 11.0565L73.3296 11.0575C74.2918 10.0819 75.3565 9.3482 76.5234 8.85942C77.6923 8.36872 78.9616 8.12385 80.3304 8.12385C81.6686 8.12385 82.9226 8.36968 84.0905 8.85942C85.1541 9.30611 86.146 9.95559 87.0624 10.8079L91.0568 6.81341C89.5819 5.4188 87.9787 4.36471 86.2455 3.64923H86.2465Z" fill="#3D4A39"/>
<path d="M55.2846 19.7151V2.27192H61.6168V34.4101L42.671 16.3615V33.8047H36.3579V1.68652L55.2846 19.7151Z" fill="#3D4A39"/>
<path d="M54.6767 18.0276V1.54765H62.4571V36.0963L43.5112 18.0486V34.5286H35.75V0L54.6758 18.0276H54.6767ZM56.1249 2.99583V21.4012L37.1991 3.37366V33.0804H42.064V14.675L61.0099 32.7227V2.99583H56.1249Z" fill="#3D4A39"/>
<path d="M26.147 2.3457H32.46V33.7646H26.147V2.3457Z" fill="#3D4A39"/>
<path d="M26.1472 1.98242H32.8218V34.1254H25.7847V1.98242H26.1462H26.1472ZM32.0987 2.70651H26.5097V33.4013H32.0987V2.70651Z" fill="#3D4A39"/>
<path d="M11.2196 17.2933C12.3636 17.2933 13.3411 16.8609 14.1599 15.9896C14.9653 15.1182 15.3709 14.0803 15.3709 12.8694C15.3709 11.7254 14.9519 10.721 14.1198 9.84963C13.2618 9.01841 11.9647 8.60615 10.2219 8.60615H6.67609V17.2742H9.11044V17.2943H11.2196V17.2933ZM0.363037 2.3457H10.6141C13.9399 2.3457 16.6813 3.41031 18.8364 5.54527C19.8943 6.59649 20.6394 7.58745 21.0785 8.5258C21.6103 9.6698 21.8772 11.0539 21.8772 12.6771V13.4949C21.8772 15.6108 21.2181 17.6061 19.8952 19.4818C18.9435 20.8056 17.6866 21.7698 16.1304 22.382L23.4411 33.7646H15.7248L6.69713 19.8683V33.7646H0.363994V2.3457H0.363037Z" fill="#3D4A39"/>
<path d="M11.2195 16.931C11.7418 16.931 12.2239 16.8334 12.6658 16.6373C13.1096 16.4403 13.519 16.1428 13.894 15.7449C14.2661 15.3412 14.5454 14.9022 14.73 14.4268C14.9146 13.9504 15.0083 13.432 15.0083 12.8696C15.0083 12.3444 14.9127 11.8537 14.7233 11.3956C14.532 10.9355 14.245 10.5041 13.8624 10.1023C13.475 9.72835 12.9853 9.44713 12.3932 9.2587C11.782 9.06356 11.0589 8.96696 10.2209 8.96696H7.03763V16.9109H9.47198V16.931H11.2186H11.2195ZM12.9576 17.2983C12.4209 17.5364 11.8422 17.6541 11.2195 17.6541H8.74885V17.634H6.3145V8.24191H10.2219C11.1277 8.24191 11.9235 8.35095 12.6113 8.57095C13.3153 8.79574 13.9016 9.13435 14.3713 9.58965L14.3809 9.59922C14.8276 10.067 15.1642 10.573 15.39 11.1172C15.6176 11.6653 15.7315 12.2488 15.7315 12.8686C15.7315 13.5171 15.6215 14.1226 15.4024 14.686C15.1834 15.2494 14.8572 15.765 14.4249 16.2337L14.422 16.2365C13.9791 16.7081 13.4913 17.062 12.9566 17.2983H12.9576ZM0.363011 1.98242H10.6141C12.3205 1.98242 13.8806 2.25694 15.2943 2.80695C16.7119 3.3579 17.9774 4.1853 19.0908 5.28817C19.6303 5.82478 20.0923 6.34799 20.4777 6.86069C20.8661 7.37721 21.175 7.88034 21.4046 8.372L21.4056 8.37295C21.6839 8.97174 21.8924 9.63174 22.0311 10.352C22.1689 11.0684 22.2377 11.8432 22.2377 12.6754V13.4932C22.2377 14.5894 22.0665 15.655 21.725 16.6899C21.3836 17.7211 20.8718 18.7206 20.1898 19.6886L20.187 19.6915C19.6915 20.3811 19.1166 20.9771 18.4623 21.4811C17.9171 21.9011 17.3174 22.2569 16.665 22.5477L24.101 34.1254H15.5277L7.05772 21.0861V34.1254H0.000488281V1.98242H0.362054H0.363011ZM10.6141 2.70651H0.724576V33.4013H6.33363V18.647L15.918 33.4013H22.7782L15.587 22.2062L15.9974 22.0445C16.7454 21.7499 17.4207 21.3721 18.0214 20.9101C18.6192 20.4491 19.1463 19.9038 19.5996 19.2735H19.5987C20.2396 18.3658 20.7188 17.4293 21.0383 16.4642C21.3558 15.5038 21.5146 14.5129 21.5146 13.4942V12.6764C21.5146 11.8853 21.4505 11.1564 21.3223 10.4888C21.1951 9.82591 21.0038 9.22139 20.7503 8.67617H20.7513C20.5428 8.23043 20.2596 7.76939 19.9019 7.294C19.5403 6.81286 19.1003 6.31547 18.5829 5.80086C17.5412 4.76877 16.358 3.99495 15.0351 3.48034C13.7084 2.96477 12.2354 2.70651 10.615 2.70651H10.6141Z" fill="#3D4A39"/>
<path d="M6.75644 54.7683C7.42122 54.7683 8.01427 54.6564 8.53653 54.4326C9.05879 54.2087 9.50357 53.895 9.86514 53.4923C10.2277 53.0896 10.5031 52.6075 10.6935 52.048C10.8838 51.4884 10.9776 50.8724 10.9776 50.2V40.4463H13.1384V50.2C13.1384 51.1259 12.993 51.9839 12.6984 52.7759C12.4038 53.5669 11.9819 54.2499 11.4329 54.8286C10.8838 55.4073 10.2124 55.8626 9.42131 56.1907C8.63027 56.5187 7.74166 56.6833 6.75644 56.6833C5.77122 56.6833 4.88261 56.5187 4.09156 56.1907C3.30052 55.8626 2.62808 55.4073 2.07617 54.8286C1.5233 54.2499 1.10243 53.5669 0.806864 52.7759C0.512255 51.9848 0.363037 51.1259 0.363037 50.2V40.4463H2.52382V50.1885C2.52382 50.86 2.62043 51.476 2.81078 52.0365C3.00113 52.596 3.27756 53.0781 3.63913 53.4808C4.00165 53.8835 4.44548 54.1973 4.97157 54.4249C5.49765 54.6526 6.09165 54.7683 6.75548 54.7683H6.75644Z" fill="#AE7B3C"/>
<path d="M24.9313 47.4776H25.7491C26.0332 47.4776 26.2609 47.4403 26.4321 47.3696C26.6033 47.2988 26.7602 47.1792 26.9027 47.007L32.2439 40.9599C32.3932 40.7657 32.55 40.6318 32.7145 40.5572C32.8791 40.4826 33.0799 40.4453 33.3191 40.4453H35.1556L29.0415 47.3543C28.8923 47.5331 28.7507 47.6785 28.612 47.7943C28.4743 47.91 28.3251 48.0066 28.1682 48.0812C28.37 48.1482 28.5527 48.2457 28.7172 48.3758C28.8818 48.5069 29.0415 48.6781 29.1984 48.8876L35.5812 56.491H33.6998C33.5582 56.491 33.4386 56.4795 33.3372 56.4613C33.2368 56.4422 33.1469 56.4125 33.0723 56.3714C32.9977 56.3303 32.9345 56.2815 32.8781 56.226C32.8217 56.1696 32.7662 56.1064 32.7136 56.0318L27.182 49.6604C27.0328 49.4739 26.8721 49.339 26.7009 49.2606C26.5297 49.1822 26.2676 49.1449 25.9175 49.1449H24.9323V56.491H22.7715V40.4443H24.9323V47.4767L24.9313 47.4776Z" fill="#AE7B3C"/>
<path d="M47.7865 48.2171C48.414 48.2171 48.9697 48.1386 49.4509 47.9856C49.932 47.8326 50.3357 47.6164 50.6599 47.3361C50.9842 47.0559 51.2271 46.724 51.3917 46.3356C51.5562 45.9473 51.6384 45.5178 51.6384 45.0481C51.6384 44.0926 51.3247 43.3723 50.6982 42.8873C50.0707 42.4024 49.1304 42.1594 47.8764 42.1594H45.5023V48.218H47.7865V48.2171ZM55.1996 56.4929H53.2731C52.8771 56.4929 52.5864 56.3399 52.3998 56.0338L48.2342 50.3004C48.107 50.1215 47.973 49.9905 47.8277 49.912C47.6823 49.8336 47.4546 49.7963 47.1485 49.7963H45.5023V56.4929H43.3416V40.4463H47.8764C48.8913 40.4463 49.7694 40.5467 50.5078 40.7524C51.2472 40.958 51.8594 41.2565 52.3405 41.6448C52.8217 42.0332 53.1765 42.4999 53.408 43.048C53.6395 43.5971 53.7552 44.2131 53.7552 44.8922C53.7552 45.4594 53.6653 45.9893 53.4864 46.482C53.3076 46.9746 53.0493 47.4155 52.7097 47.8067C52.3702 48.1989 51.956 48.5347 51.4672 48.8111C50.9784 49.0875 50.4217 49.296 49.8019 49.4386C50.0784 49.5954 50.3175 49.8231 50.5184 50.1215L55.1996 56.4929Z" fill="#AE7B3C"/>
<path d="M70.8761 50.5347L68.3566 44.0065C68.282 43.8123 68.2036 43.5846 68.1213 43.3273C68.0391 43.07 67.9606 42.7974 67.886 42.5057C67.7292 43.1102 67.5685 43.6143 67.4049 44.017L64.8854 50.5338H70.8761V50.5347ZM75.4005 56.492H73.7208C73.5266 56.492 73.3698 56.4432 73.2502 56.3466C73.1306 56.25 73.0407 56.1266 72.9814 55.9774L71.4806 52.1025H64.2799L62.7791 55.9774C62.7342 56.1113 62.6481 56.2308 62.5218 56.3361C62.3946 56.4403 62.2378 56.4929 62.0512 56.4929H60.3716L66.7879 40.4463H68.9832L75.3995 56.4929L75.4005 56.492Z" fill="#AE7B3C"/>
<path d="M84.672 56.4919H82.4998V40.4443H84.672V56.4919Z" fill="#AE7B3C"/>
<path d="M107.505 40.4443V56.491H106.419C106.246 56.491 106.105 56.4613 105.989 56.4011C105.873 56.3418 105.758 56.2404 105.646 56.0988L96.3627 44.0045C96.378 44.191 96.3885 44.3737 96.3962 44.5536C96.4038 44.7324 96.4076 44.9008 96.4076 45.0576V56.491H94.5042V40.4443H95.6242C95.7208 40.4443 95.8031 40.4482 95.871 40.4596C95.938 40.4711 95.9982 40.4893 96.0499 40.5161C96.1025 40.5419 96.1541 40.5792 96.2068 40.628C96.2594 40.6768 96.3148 40.7399 96.3751 40.8145L105.658 52.8973C105.643 52.7031 105.632 52.5128 105.621 52.3301C105.609 52.1474 105.602 51.9752 105.602 51.8117V40.4453H107.505V40.4443Z" fill="#AE7B3C"/>
<path d="M125.109 50.5347L122.59 44.0065C122.515 43.8123 122.437 43.5846 122.354 43.3273C122.272 43.07 122.194 42.7974 122.119 42.5057C121.962 43.1102 121.801 43.6143 121.638 44.017L119.118 50.5338H125.109V50.5347ZM129.633 56.492H127.954C127.76 56.492 127.603 56.4432 127.483 56.3466C127.364 56.25 127.274 56.1266 127.214 55.9774L125.714 52.1025H118.513L117.012 55.9774C116.967 56.1113 116.881 56.2308 116.755 56.3361C116.628 56.4403 116.471 56.4929 116.284 56.4929H114.604L121.021 40.4463H123.216L129.632 56.4929L129.633 56.492Z" fill="#AE7B3C"/>
</g>
<defs>
<clipPath id="clip0_238_127">
<rect width="130" height="56.6826" fill="white"/>
</clipPath>
</defs>
</svg>
