<svg width="48" height="50" viewBox="0 0 48 50" fill="none" xmlns="http://www.w3.org/2000/svg">
<path d="M44.7736 0H3.22754C1.6877 0 0.43457 1.25234 0.43457 2.79219V44.3391C0.43457 45.8789 1.6877 47.1297 3.22676 47.1297H4.5791V49.243C4.5791 49.6609 4.91816 50 5.33691 50H11.933C12.3518 50 12.6908 49.6609 12.6908 49.243V47.1297H35.308V49.243C35.308 49.6609 35.6471 50 36.0658 50H42.6619C43.0799 50 43.4189 49.6609 43.4189 49.243V47.1297H44.7721C46.3119 47.1297 47.5643 45.8781 47.5643 44.3391V2.79219C47.5658 1.25234 46.3135 0 44.7736 0ZM3.22754 1.51406H44.7736C45.4768 1.51406 46.051 2.0875 46.051 2.79219V10.3617H1.9502V2.79219C1.9502 2.08828 2.52285 1.51406 3.22754 1.51406ZM11.176 48.4852H6.09551V47.1305H11.1768V48.4852H11.176ZM41.9049 48.4852H36.8236V47.1305H41.9049V48.4852ZM44.7736 45.6148H3.22754C2.52363 45.6148 1.9502 45.043 1.9502 44.3391V11.8773H46.051V44.3391C46.051 45.0422 45.4768 45.6148 44.7736 45.6148Z" fill="white"/>
</svg>
